<?xml version="1.0" standalone="no"?>
<!DOCTYPE svg PUBLIC "-//W3C//DTD SVG 20010904//EN"
 "http://www.w3.org/TR/2001/REC-SVG-20010904/DTD/svg10.dtd">
<svg version="1.0" xmlns="http://www.w3.org/2000/svg"
 width="1920.000000pt" height="1080.000000pt" viewBox="0 0 1920.000000 1080.000000"
 preserveAspectRatio="xMidYMid meet">

<g transform="translate(0.000000,1080.000000) scale(0.100000,-0.100000)"
fill="#000000" stroke="none">
<path d="M0 5400 l0 -5400 9600 0 9600 0 0 5400 0 5400 -9600 0 -9600 0 0
-5400z m9005 2835 c71 -30 125 -122 125 -211 l0 -44 -44 0 -43 0 -6 80 c-8
125 -53 176 -154 174 -47 -1 -84 -22 -110 -61 -16 -25 -18 -59 -18 -353 l0
-327 28 -36 c44 -57 114 -69 189 -30 40 20 59 66 65 155 l6 78 45 0 45 0 -6
-65 c-13 -141 -89 -207 -238 -208 -65 -1 -82 3 -123 27 -25 15 -59 46 -74 68
l-27 42 0 291 0 292 30 48 c33 53 77 84 134 96 45 9 136 1 176 -16z m628 1
c38 -16 82 -58 105 -101 15 -26 17 -68 17 -315 0 -311 0 -312 -62 -374 -42
-43 -88 -59 -174 -59 -65 -1 -83 3 -123 27 -25 15 -59 46 -74 68 l-27 41 -3
279 c-3 277 -3 279 21 332 28 60 69 94 136 113 52 14 136 9 184 -11z m2815 -2
c52 -21 89 -60 109 -113 16 -40 18 -81 18 -301 0 -279 -4 -305 -58 -366 -43
-50 -89 -67 -177 -67 -86 0 -140 21 -183 73 -45 53 -49 85 -45 382 l3 276 30
43 c32 46 76 77 128 90 42 11 130 2 175 -17z m-5678 -4 c0 -5 -9 -10 -20 -10
-13 0 -20 -7 -20 -20 0 -11 24 -138 54 -282 30 -145 60 -289 66 -321 7 -32 14
-57 16 -54 2 2 33 152 69 333 36 181 68 337 71 347 5 15 14 17 52 15 l46 -3
70 -348 c38 -191 71 -346 73 -344 4 5 133 646 133 664 0 7 -9 13 -20 13 -11 0
-20 5 -20 10 0 6 25 10 55 10 54 0 77 -15 33 -22 -20 -3 -27 -29 -103 -408
l-81 -405 -35 -3 -35 -3 -73 373 c-40 205 -75 380 -78 388 -3 8 -40 -158 -82
-370 l-76 -385 -35 -3 -35 -3 -73 363 c-41 200 -78 384 -84 411 -8 40 -13 47
-34 47 -13 0 -24 5 -24 10 0 6 38 10 95 10 57 0 95 -4 95 -10z m1210 -76 l0
-85 -37 3 -38 3 -3 73 -3 72 -114 0 -115 0 0 -195 0 -195 130 0 c80 0 130 -4
130 -10 0 -6 -50 -10 -130 -10 l-130 0 0 -195 0 -195 115 0 114 0 3 73 3 72
38 3 37 3 0 -85 0 -86 -225 0 c-132 0 -225 4 -225 9 0 5 10 11 23 13 l22 3 0
395 0 395 -22 3 c-13 2 -23 8 -23 13 0 5 93 9 225 9 l225 0 0 -86z m290 76 c0
-5 -11 -10 -25 -10 l-25 0 0 -400 0 -401 118 3 117 3 5 71 5 70 35 0 35 -1 3
-82 3 -83 -231 0 c-147 0 -230 4 -230 10 0 6 11 10 25 10 l25 0 0 400 0 400
-25 0 c-14 0 -25 5 -25 10 0 6 38 10 95 10 57 0 95 -4 95 -10z m1741 -70 c15
-41 71 -192 125 -335 53 -143 99 -264 104 -268 4 -4 38 83 75 195 37 112 90
267 118 346 l49 142 69 0 c65 0 96 -15 47 -22 l-23 -3 0 -395 0 -395 23 -3
c12 -2 22 -8 22 -13 0 -5 -43 -9 -95 -9 -57 0 -95 4 -95 10 0 6 11 10 25 10
l25 0 -1 368 c-1 346 -1 364 -16 322 -9 -25 -66 -193 -128 -375 -64 -188 -118
-330 -124 -330 -7 0 -67 147 -134 327 -68 180 -126 330 -130 334 -4 4 -6 -138
-5 -317 l3 -324 23 -3 c44 -7 21 -22 -33 -22 -30 0 -55 5 -55 10 0 6 9 10 20
10 20 0 20 7 20 400 0 393 0 400 -20 400 -11 0 -20 5 -20 11 0 6 20 9 51 7
l52 -3 28 -75z m1137 -2 l-3 -83 -35 0 -35 0 -3 73 -3 72 -114 0 -115 0 0
-195 0 -195 125 0 c167 0 165 -19 -2 -22 -71 -2 -127 -6 -125 -10 1 -5 2 -91
2 -193 l0 -185 115 0 114 0 3 73 3 72 35 0 35 0 3 -82 3 -83 -226 0 c-143 0
-225 4 -225 10 0 6 9 10 20 10 20 0 20 7 20 400 0 393 0 400 -20 400 -11 0
-20 5 -20 10 0 6 82 10 225 10 l226 0 -3 -82z m842 -4 l0 -85 -27 3 c-27 3
-28 5 -31 76 l-3 72 -64 0 -65 0 0 -400 0 -400 25 0 c14 0 25 -4 25 -10 0 -6
-38 -10 -95 -10 -52 0 -95 4 -95 9 0 5 10 11 23 13 l22 3 3 398 2 397 -65 0
-65 0 0 -69 c0 -54 -4 -70 -16 -75 -40 -16 -44 -9 -44 79 l0 85 235 0 235 0 0
-86z m-5393 -836 c-41 -179 -46 -270 -21 -437 65 -449 325 -1085 667 -1635
l81 -129 22 99 c22 102 112 515 190 874 25 113 54 244 64 291 11 48 20 92 20
98 0 7 -27 11 -80 11 -79 0 -80 0 -80 25 l0 25 189 0 188 0 -5 -25 c-4 -24 -7
-25 -78 -25 -51 0 -76 -4 -79 -12 -4 -11 -73 -329 -261 -1206 l-46 -214 33
-46 c18 -26 60 -81 93 -122 186 -230 331 -340 446 -340 45 0 55 4 94 40 51 47
72 38 32 -14 -77 -102 -224 -82 -393 54 -151 121 -383 415 -570 720 -145 238
-320 580 -401 784 -28 71 -41 94 -45 80 -3 -10 -65 -280 -137 -599 -72 -319
-143 -634 -158 -700 l-27 -120 -110 0 -109 0 -44 205 c-24 113 -106 491 -181
840 l-136 635 -82 9 c-78 9 -83 11 -83 33 l0 23 295 0 295 0 0 -24 c0 -22 -5
-24 -72 -30 -39 -3 -74 -8 -76 -11 -4 -3 53 -273 168 -795 21 -96 60 -275 86
-397 26 -122 49 -221 51 -220 1 2 41 172 88 378 79 346 190 831 199 871 2 9
-11 64 -29 120 -118 374 -133 675 -40 858 26 51 52 68 42 28z m3100 -1503
c117 -440 218 -819 224 -842 l12 -43 48 0 c46 0 49 -2 49 -25 l0 -25 -195 0
-195 0 0 25 c0 23 4 25 46 25 54 0 57 -34 -24 270 l-58 215 -304 0 -304 0 -63
-230 c-34 -126 -62 -236 -63 -242 0 -9 15 -13 45 -13 41 0 45 -2 45 -25 l0
-25 -120 0 -120 0 0 25 c0 23 3 25 50 25 28 0 50 2 50 4 0 4 157 593 209 786
11 41 68 255 126 475 58 220 108 406 110 413 4 9 31 12 112 10 l107 -3 213
-800z m1633 780 c0 -23 -3 -25 -50 -25 l-50 0 0 -820 0 -820 245 0 245 0 0
145 0 145 85 0 85 0 0 -170 0 -170 -475 0 -475 0 0 25 c0 23 3 25 50 25 l50 0
0 820 0 820 -50 0 c-47 0 -50 2 -50 25 l0 25 195 0 195 0 0 -25z m1870 0 c0
-23 -3 -25 -50 -25 l-50 0 0 -820 0 -820 50 0 c47 0 50 -2 50 -25 l0 -25 -195
0 -195 0 0 25 c0 23 3 25 50 25 l50 0 0 820 0 820 -50 0 c-47 0 -50 2 -50 25
l0 25 195 0 195 0 0 -25z m5430 -4670 l0 -75 -8797 0 c-4839 0 -8803 4 -8809
8 -6 4 -12 37 -13 75 l-2 67 8811 0 8810 0 0 -75z m-16873 -382 c-29 -7 -37
-46 -37 -169 0 -101 2 -116 20 -134 27 -27 2 -26 -27 2 -22 20 -23 29 -23 140
0 113 1 120 25 143 13 14 32 24 42 24 17 -1 17 -2 0 -6z m84 -12 c22 -18 24
-27 27 -138 3 -109 2 -121 -18 -146 -12 -15 -28 -27 -36 -27 -13 0 -13 2 0 16
13 12 16 41 16 149 0 127 -1 135 -22 149 -17 12 -19 16 -6 16 9 0 26 -9 39
-19z m1159 -42 c3 -33 8 -49 13 -41 11 17 47 15 69 -5 15 -13 18 -32 18 -108
0 -62 -4 -96 -12 -102 -25 -19 -46 -21 -72 -8 -14 8 -26 10 -26 4 0 -5 -10 -9
-22 -8 -13 0 -17 3 -10 6 10 4 13 41 12 156 -1 84 -1 156 0 160 0 5 6 7 13 5
7 -3 14 -28 17 -59z m400 35 c0 -8 -7 -14 -15 -14 -15 0 -21 21 -9 33 10 9 24
-2 24 -19z m2287 18 c8 -5 13 -56 15 -165 l3 -157 -30 0 c-20 0 -26 3 -17 9
11 6 13 43 10 165 -2 86 -1 156 2 156 3 0 10 -4 17 -8z m943 -151 c0 -118 3
-161 13 -164 6 -3 -4 -6 -23 -6 -19 -1 -48 -2 -64 -2 -46 -2 -57 19 -58 102 0
118 0 119 27 131 19 8 31 8 51 -1 l26 -11 -4 55 c-3 47 0 55 15 55 15 0 17
-14 17 -159z m1960 133 c0 -8 -7 -14 -15 -14 -8 0 -15 9 -15 20 0 13 5 18 15
14 8 -4 15 -12 15 -20z m701 -86 c0 -62 0 -133 -1 -157 -1 -27 3 -47 12 -52 8
-6 -1 -9 -27 -9 -25 0 -35 3 -27 9 11 6 13 43 10 165 -3 143 -2 156 15 156 15
0 17 -12 18 -112z m237 -48 c2 -108 6 -156 15 -162 7 -4 -5 -7 -28 -7 -22 0
-34 3 -27 6 9 3 12 46 12 165 0 123 3 159 13 156 9 -4 13 -46 15 -158z m2904
2 c-3 -120 0 -157 10 -163 8 -6 -2 -9 -27 -9 -25 0 -35 3 -27 9 10 6 12 44 10
162 -3 148 -2 154 17 155 19 2 20 -4 17 -154z m1898 145 c-55 -19 -70 -60 -70
-192 0 -133 11 -180 48 -200 15 -8 20 -14 12 -14 -19 -1 -55 28 -69 56 -14 27
-15 262 -1 297 11 29 65 66 95 65 12 0 7 -5 -15 -12z m140 -2 c48 -25 60 -61
60 -183 0 -71 -4 -112 -12 -120 -16 -16 -31 -16 -22 0 4 6 6 66 5 132 -3 136
-11 160 -64 175 -17 5 -24 10 -14 10 10 1 31 -6 47 -14z m144 9 c12 -4 16 -20
16 -55 0 -46 1 -49 19 -39 26 14 44 13 66 -4 16 -11 18 -26 16 -107 -1 -51 -6
-99 -12 -106 -7 -8 -34 -12 -76 -11 -35 0 -59 4 -53 8 8 5 10 56 8 163 -2 87
-2 157 -1 157 1 0 8 -3 17 -6z m1126 -155 c0 -116 3 -159 13 -162 6 -3 -1 -6
-18 -6 l-30 -1 3 163 c2 135 5 164 17 164 13 0 15 -27 15 -158z m458 152 c11
-6 13 -42 10 -160 -2 -94 1 -153 7 -155 6 -3 0 -5 -12 -5 -13 -1 -23 3 -23 8
0 6 -12 4 -26 -4 -15 -7 -34 -11 -43 -8 -33 12 -41 36 -41 124 0 79 2 89 22
103 26 19 54 21 64 5 4 -7 1 -10 -7 -7 -8 3 -22 1 -31 -4 -15 -7 -18 -23 -18
-93 0 -100 5 -115 36 -115 36 0 42 29 39 183 -1 75 0 137 4 137 3 0 12 -4 19
-9z m512 -17 c0 -8 -9 -14 -20 -14 -22 0 -28 26 -7 33 16 6 27 -1 27 -19z
m-12750 1 c0 -8 -9 -15 -20 -15 -11 0 -20 7 -20 15 0 8 9 15 20 15 11 0 20 -7
20 -15z m5459 -11 c45 -57 18 -183 -38 -184 -11 0 -11 4 2 18 13 14 17 37 17
88 0 72 -5 87 -30 97 -10 4 -8 6 7 6 12 1 31 -10 42 -25z m1341 11 c0 -8 -9
-15 -20 -15 -11 0 -20 7 -20 15 0 8 9 15 20 15 11 0 20 -7 20 -15z m300 0 c0
-8 -9 -15 -20 -15 -11 0 -20 7 -20 15 0 8 9 15 20 15 11 0 20 -7 20 -15z
m4790 0 c0 -8 -9 -15 -20 -15 -11 0 -20 7 -20 15 0 8 9 15 20 15 11 0 20 -7
20 -15z m1560 -52 c0 -38 -3 -93 -7 -123 -10 -79 -21 -32 -22 93 -1 80 2 97
14 97 12 0 15 -14 15 -67z m-13890 0 c5 -250 3 -237 30 -244 l25 -7 -25 -1
c-48 -1 -55 11 -60 121 -6 126 -3 158 16 158 9 0 14 -11 14 -27z m2052 -105
c3 -131 3 -132 28 -139 24 -7 23 -7 -6 -8 -17 -1 -36 5 -42 12 -6 7 -11 57
-12 112 -2 151 -2 155 15 155 12 0 15 -24 17 -132z m2888 105 c5 -250 3 -237
30 -244 l25 -7 -25 -1 c-48 -1 -55 11 -60 121 -6 126 -3 158 16 158 9 0 14
-11 14 -27z m2713 8 c2 -11 2 -47 0 -81 -3 -34 -2 -86 2 -115 5 -44 10 -55 28
-58 14 -3 11 -5 -8 -4 -44 3 -55 33 -55 165 0 89 3 112 14 112 7 0 16 -9 19
-19z m1781 -83 c-3 -134 2 -166 30 -172 13 -2 9 -4 -9 -3 -44 3 -55 33 -55
165 0 103 2 112 19 112 17 0 18 -8 15 -102z m-10702 50 c20 -16 31 -68 19 -87
-14 -22 -31 -3 -31 34 0 39 -24 59 -52 44 -15 -8 -18 -24 -18 -109 0 -69 4
-100 13 -103 6 -3 -6 -6 -28 -6 -25 0 -35 2 -27 8 10 6 13 35 10 115 -3 103
-2 107 17 102 11 -3 27 -1 35 4 21 13 43 12 62 -2z m628 -8 c14 -14 20 -33 20
-65 l0 -45 -51 0 -51 0 4 -54 c3 -47 1 -53 -13 -45 -21 11 -27 47 -24 127 4
73 23 102 67 102 15 0 37 -9 48 -20z m398 4 c25 -17 31 -64 8 -64 -9 0 -16 12
-18 32 -2 25 -9 34 -28 39 -21 6 -21 7 -5 8 11 1 31 -6 43 -15z m450 0 c18
-12 22 -25 22 -65 l0 -49 -47 2 c-38 1 -41 2 -15 5 l33 4 -3 52 c-3 50 -4 52
-33 52 l-30 0 -3 -99 c-2 -64 1 -103 9 -112 16 -20 -5 -18 -25 2 -12 12 -16
37 -16 104 0 80 2 90 22 104 12 9 32 16 43 16 11 0 31 -7 43 -16z m405 4 c24
-19 34 -68 13 -68 -10 0 -16 9 -16 23 0 46 -50 64 -70 26 -19 -34 -4 -66 35
-79 19 -6 42 -18 50 -27 20 -19 19 -62 -2 -85 -19 -21 -41 -25 -24 -4 7 8 11
27 9 42 -2 22 -14 33 -53 53 -48 25 -50 28 -49 65 1 25 8 44 20 53 23 16 65
17 87 1z m305 -4 c25 -17 31 -64 8 -64 -9 0 -16 12 -18 33 -3 28 -6 32 -33 32
l-30 0 -3 -99 c-2 -64 1 -103 9 -112 16 -20 -5 -18 -25 2 -12 12 -16 37 -16
104 0 80 2 90 22 104 12 9 32 16 43 16 11 0 31 -7 43 -16z m399 8 c17 -11 30
-52 25 -79 -7 -34 -27 -22 -29 17 -2 41 -27 64 -54 49 -17 -8 -19 -22 -19
-109 0 -69 4 -100 13 -103 6 -3 -6 -6 -28 -6 -25 0 -35 2 -27 8 10 6 13 35 10
115 -3 103 -2 107 17 102 11 -3 27 -1 35 4 18 12 41 12 57 2z m194 -2 c14 -8
19 -21 19 -56 0 -32 -4 -44 -12 -41 -13 4 -15 10 -17 58 -1 29 -27 42 -55 27
-13 -7 -16 -27 -16 -108 0 -69 4 -100 13 -103 6 -3 -6 -6 -28 -6 -25 0 -35 2
-27 8 10 6 13 35 10 115 -3 103 -2 107 17 102 11 -3 27 -1 35 4 20 13 37 12
61 0z m188 -7 c16 -13 22 -31 24 -63 l2 -45 -52 -3 -53 -3 0 -43 c0 -23 5 -47
12 -54 18 -18 -3 -14 -24 5 -28 25 -26 175 2 203 25 25 61 26 89 3z m211 -3
c17 -17 20 -33 20 -114 0 -66 4 -96 13 -99 6 -3 0 -6 -15 -6 l-28 -1 0 99 c0
111 -11 137 -53 122 -20 -8 -22 -15 -25 -106 -2 -72 1 -101 10 -107 8 -5 2 -8
-17 -8 l-30 0 3 116 c3 107 5 116 22 111 10 -2 24 -1 31 4 23 14 48 10 69 -11z
m980 0 c17 -17 20 -33 20 -114 0 -66 4 -96 13 -99 6 -3 0 -6 -15 -6 l-28 -1 0
99 c0 77 -4 103 -16 115 -8 9 -19 16 -24 16 -5 0 -16 -7 -24 -16 -21 -20 -23
-199 -3 -207 6 -3 -6 -6 -28 -6 -25 0 -35 2 -27 8 10 6 13 35 10 115 -3 106
-3 107 19 103 12 -2 28 0 35 4 22 14 47 10 68 -11z m402 3 c13 -11 18 -30 18
-65 l0 -48 -47 2 c-38 1 -41 2 -15 5 l33 4 -3 52 c-3 50 -4 52 -33 52 l-30 0
-3 -104 c-2 -77 1 -107 10 -113 9 -5 9 -8 1 -8 -31 0 -43 31 -43 116 0 71 3
87 20 104 24 24 67 26 92 3z m201 5 c19 -15 30 -85 15 -94 -14 -9 -28 15 -28
48 0 32 -26 51 -52 37 -15 -8 -18 -24 -18 -109 0 -69 4 -100 13 -103 6 -3 -6
-6 -28 -6 -25 0 -35 2 -27 8 10 6 13 35 10 115 -3 103 -2 107 17 102 11 -3 27
-1 35 4 21 13 43 12 63 -2z m295 -4 c16 -11 22 -25 22 -55 0 -57 -28 -54 -32
4 -3 38 -6 42 -31 45 -15 2 -25 8 -22 13 9 14 38 11 63 -7z m192 -4 c14 -14
20 -33 20 -65 l0 -45 -51 0 -51 0 4 -55 c3 -58 -1 -65 -23 -39 -9 11 -14 45
-14 101 0 77 3 87 24 104 30 25 66 24 91 -1z m204 4 c12 -12 16 -38 16 -114 0
-69 4 -100 13 -103 6 -3 0 -6 -15 -6 l-28 -1 0 105 c0 91 -2 106 -19 114 -13
7 -23 6 -35 -2 -15 -11 -17 -28 -14 -115 l3 -102 -30 0 c-20 0 -26 3 -17 9 10
6 13 35 10 115 -3 103 -2 107 17 102 11 -3 27 -1 35 4 22 14 47 12 64 -6z
m197 -3 c22 -18 24 -27 24 -104 0 -56 -4 -89 -14 -100 -22 -28 -29 -19 -19 22
6 25 7 67 2 113 -7 58 -13 73 -27 76 -37 7 -47 -16 -47 -112 0 -58 4 -96 12
-104 8 -8 9 -12 1 -12 -31 0 -43 32 -43 116 0 71 3 87 20 104 25 25 61 26 91
1z m419 -1 c17 -17 20 -33 20 -114 0 -66 4 -96 13 -99 6 -3 -8 -5 -33 -6 -25
0 -54 -1 -64 -1 -37 -2 -53 37 -47 118 1 29 46 48 79 33 22 -11 23 -10 20 31
-3 40 -5 43 -33 43 -25 0 -30 -4 -33 -27 -4 -30 -32 -40 -32 -11 0 48 73 70
110 33z m448 4 c20 -14 22 -24 22 -104 0 -89 -11 -120 -43 -120 -8 0 -8 3 1 8
9 6 12 36 10 113 l-3 104 -30 0 -30 0 -3 -99 c-2 -64 1 -103 9 -112 16 -20 -5
-18 -25 2 -12 12 -16 37 -16 104 0 80 2 90 22 104 12 9 32 16 43 16 11 0 31
-7 43 -16z m208 2 c17 -13 19 -27 18 -113 0 -59 4 -101 10 -105 6 -4 -1 -8
-15 -8 l-27 0 -1 103 c-1 81 -5 104 -18 114 -11 9 -21 9 -34 2 -17 -8 -19 -22
-19 -109 0 -69 4 -100 13 -103 6 -3 -6 -6 -28 -6 -25 0 -35 2 -27 8 10 6 13
35 10 115 -3 103 -2 107 17 102 11 -3 27 -1 35 4 21 14 43 12 66 -4z m733 -3
c16 -13 22 -31 24 -63 l2 -45 -52 -3 -53 -3 0 -43 c0 -23 5 -47 12 -54 8 -8 9
-12 1 -12 -31 0 -43 32 -43 116 0 71 3 87 20 104 25 25 61 26 89 3z m201 -1
c20 -16 24 -31 29 -120 5 -93 4 -102 -11 -102 -10 0 -18 5 -18 10 0 6 -11 3
-24 -5 -27 -18 -69 -7 -80 20 -13 36 -6 95 15 116 20 20 32 20 71 4 13 -5 16
-1 13 29 -4 47 -11 56 -41 56 -19 0 -26 -6 -30 -30 -4 -16 -13 -30 -20 -30
-21 0 -17 27 8 50 27 25 59 26 88 2z m210 -2 c24 -24 27 -60 5 -60 -9 0 -15 9
-15 23 0 46 -50 64 -70 26 -19 -34 -4 -66 35 -79 19 -6 42 -18 50 -27 20 -19
19 -67 -1 -87 -22 -23 -37 -20 -24 5 20 37 8 61 -45 88 -48 25 -50 28 -49 65
2 45 23 66 66 66 15 0 37 -9 48 -20z m203 1 c6 -6 11 -32 11 -58 l1 -48 -52
-3 -53 -3 0 -35 c0 -20 5 -44 10 -55 16 -29 -6 -24 -26 6 -24 37 -17 178 11
200 21 17 80 14 98 -4z m610 7 c24 -19 34 -68 13 -68 -10 0 -16 9 -16 23 0 46
-50 64 -70 26 -19 -34 -4 -66 35 -79 19 -6 42 -18 50 -27 20 -19 19 -62 -2
-85 -19 -21 -41 -25 -24 -4 7 8 11 27 9 42 -2 22 -14 33 -53 53 -48 25 -50 28
-49 65 1 25 8 44 20 53 23 16 65 17 87 1z m765 -8 c25 -24 29 -60 7 -60 -9 0
-15 9 -15 23 0 46 -50 64 -70 26 -20 -36 -5 -65 45 -83 33 -13 47 -25 52 -44
7 -29 -13 -72 -37 -80 -13 -4 -13 -3 -2 11 7 9 12 28 10 43 -2 22 -14 33 -53
53 -48 25 -50 28 -49 65 2 64 65 89 112 46z m300 4 c20 -14 22 -24 22 -100 0
-79 -10 -124 -28 -124 -4 0 -7 50 -7 112 0 111 0 112 -25 119 -21 6 -21 7 -5
8 11 1 31 -6 43 -15z m206 0 c18 -17 18 -17 17 -129 0 -51 5 -82 12 -87 7 -5
1 -8 -16 -8 l-28 0 2 102 c1 86 -1 103 -16 114 -13 9 -23 10 -36 3 -17 -8 -19
-22 -19 -109 0 -69 4 -100 13 -103 6 -3 -6 -6 -28 -6 -25 0 -35 2 -27 8 10 6
13 35 10 115 -3 103 -2 107 17 102 11 -3 27 -1 35 4 22 14 47 12 64 -6z m411
3 c15 -12 18 -28 18 -113 0 -61 4 -102 11 -106 6 -4 -1 -8 -17 -8 l-27 0 1
102 c1 86 -2 104 -16 115 -13 8 -23 9 -36 2 -17 -8 -19 -22 -19 -109 0 -69 4
-100 13 -103 6 -3 -6 -6 -28 -6 -25 0 -35 2 -27 8 10 6 13 35 10 115 -3 103
-2 107 17 102 11 -3 27 -1 35 4 21 14 43 12 65 -3z m203 -7 c25 -24 29 -60 7
-60 -9 0 -15 9 -15 23 0 46 -50 64 -70 26 -20 -36 -5 -65 45 -83 33 -13 47
-25 52 -44 7 -29 -13 -72 -37 -80 -13 -4 -13 -3 -2 11 7 9 12 28 10 44 -2 22
-13 32 -50 50 -56 27 -62 35 -53 79 10 53 72 72 113 34z m348 6 c16 -12 20
-29 23 -113 2 -59 8 -101 15 -106 6 -4 -7 -7 -29 -7 -22 0 -53 0 -69 0 -16 0
-33 3 -38 8 -13 13 -21 77 -14 107 8 30 49 50 74 35 14 -8 13 -9 -9 -10 -30 0
-39 -15 -39 -69 0 -42 14 -61 47 -61 29 0 34 21 30 124 -1 62 -6 81 -19 90
-23 14 -52 -3 -56 -33 -2 -11 -10 -21 -18 -21 -17 0 -17 2 -3 34 17 36 70 47
105 22z m179 4 c3 -6 16 -8 28 -5 l22 6 -5 -151 c-4 -135 -7 -153 -24 -166
-40 -29 -106 -6 -106 38 0 29 28 21 32 -9 3 -24 8 -28 33 -28 29 0 30 2 33 47
3 46 2 48 -20 39 -24 -9 -61 0 -72 18 -3 5 -7 51 -7 102 -1 78 2 95 17 106 21
15 60 17 69 3z m228 -2 c19 -15 30 -85 15 -94 -14 -9 -28 15 -28 48 0 32 -26
51 -52 37 -15 -8 -18 -24 -18 -109 0 -69 4 -100 13 -103 6 -3 -6 -6 -28 -6
-25 0 -35 2 -27 8 10 6 13 35 10 115 -3 103 -2 107 17 102 11 -3 27 -1 35 4
21 13 43 12 63 -2z m188 -7 c22 -17 24 -28 26 -110 1 -50 5 -95 8 -101 4 -6
-7 -10 -27 -10 -18 0 -46 -1 -62 -1 -39 -1 -56 23 -56 78 0 30 6 49 21 64 20
20 32 21 72 4 15 -6 17 -3 11 31 -7 48 -11 54 -33 54 -22 0 -41 -19 -41 -42 0
-10 -7 -18 -15 -18 -21 0 -19 26 5 50 25 25 61 26 91 1z m195 9 c6 -6 21 -6
41 2 28 10 35 9 52 -7 18 -16 21 -30 21 -116 0 -68 4 -99 13 -102 6 -3 0 -6
-15 -6 l-27 -1 -3 108 -3 107 -27 3 -28 3 0 -105 c0 -74 4 -106 13 -109 6 -3
0 -6 -15 -6 l-28 -1 0 99 c0 76 -4 103 -15 115 -16 16 -44 12 -46 -8 -6 -52
-2 -192 6 -198 6 -4 -6 -7 -25 -7 -19 0 -30 2 -25 5 6 2 9 48 8 115 -2 104 -1
111 16 106 10 -2 25 -1 32 4 19 12 43 11 55 -1z m472 -6 c20 -14 22 -23 22
-109 0 -72 4 -97 16 -109 19 -20 5 -21 -21 -2 -15 11 -23 11 -43 0 -24 -12
-46 -10 -69 9 -8 5 -13 32 -13 63 0 45 4 56 24 69 18 12 30 13 50 5 27 -10 27
-10 24 33 -3 39 -5 42 -33 42 -25 0 -30 -4 -33 -27 -4 -32 -32 -39 -32 -9 0
23 36 51 65 51 11 0 31 -7 43 -16z m1190 0 c20 -14 22 -23 22 -114 0 -69 4
-100 13 -103 6 -3 -8 -5 -33 -6 -25 0 -53 -1 -63 -1 -34 -2 -47 20 -47 76 0
46 3 56 25 70 21 14 31 15 51 5 25 -11 25 -11 22 31 -3 40 -5 43 -33 43 -25 0
-30 -4 -33 -27 -4 -32 -32 -39 -32 -9 0 23 36 51 65 51 11 0 31 -7 43 -16z
m759 1 c24 -17 38 -64 28 -95 -5 -16 -15 -20 -56 -20 l-49 0 0 -43 c0 -24 5
-48 12 -55 8 -8 9 -12 1 -12 -31 0 -43 32 -43 116 0 71 3 87 20 104 24 24 57
26 87 5z m201 -2 c24 -21 32 -54 15 -60 -7 -3 -16 10 -21 29 -14 56 -72 46
-72 -14 0 -25 6 -31 45 -48 54 -23 72 -57 53 -98 -19 -39 -40 -42 -27 -3 14
39 -1 67 -41 76 -40 9 -60 30 -60 66 0 58 65 89 108 52z m312 7 l25 0 -5 -144
c-6 -160 -16 -186 -72 -186 -30 0 -68 30 -68 55 0 28 27 15 34 -15 4 -24 11
-30 31 -30 29 0 50 39 40 77 -4 19 -9 21 -31 13 -29 -11 -58 0 -68 26 -3 8 -6
50 -6 93 0 96 16 126 64 117 17 -4 42 -6 56 -6z m204 -12 c12 -16 16 -47 16
-114 0 -65 4 -94 13 -97 6 -3 0 -6 -15 -6 l-28 -1 0 105 c0 91 -2 106 -19 114
-13 7 -23 6 -36 -3 -15 -11 -18 -29 -19 -109 -1 -58 2 -99 9 -101 5 -2 -6 -4
-25 -4 -19 0 -30 1 -25 4 6 2 10 49 9 115 -1 110 -1 110 22 105 12 -3 26 -2
29 4 11 18 53 11 69 -12z m146 13 c-20 -5 -26 -14 -28 -43 -3 -35 -1 -38 47
-63 48 -24 51 -27 51 -65 0 -27 -5 -42 -17 -49 -16 -8 -18 -4 -15 34 4 41 3
42 -40 59 -50 21 -58 30 -58 73 0 35 30 64 65 62 16 -1 16 -2 -5 -8z m-15275
-101 c0 -52 4 -101 8 -107 5 -7 20 -13 35 -14 25 0 26 -1 5 -9 -60 -24 -83 16
-83 141 0 81 2 90 18 87 15 -3 17 -16 17 -98z m107 -6 c-3 -80 0 -109 10 -115
9 -6 7 -9 -9 -9 -12 0 -25 5 -28 10 -4 6 -7 58 -8 115 -2 99 -1 105 18 105 19
0 20 -6 17 -106z m406 54 c7 -29 17 -71 23 -93 10 -35 13 -37 20 -20 6 14 7 9
3 -15 -7 -42 -21 -60 -32 -43 -5 7 -19 57 -31 110 -13 54 -29 101 -35 105 -6
4 0 8 14 8 22 0 27 -6 38 -52z m136 -25 c24 -108 26 -112 37 -88 6 14 7 10 3
-15 -7 -41 -20 -59 -32 -45 -5 6 -17 46 -26 90 -20 85 -35 125 -36 91 0 -11
-2 -17 -5 -14 -12 12 8 58 24 58 13 0 21 -18 35 -77z m588 37 c-4 -38 -3 -40
44 -62 45 -21 49 -27 52 -61 3 -35 -10 -67 -27 -67 -3 0 -5 20 -3 44 4 43 3
43 -40 60 -23 10 -46 23 -50 29 -12 19 -9 72 4 85 20 20 24 14 20 -28z m198
-69 c0 -78 4 -111 13 -114 6 -3 -6 -6 -28 -6 -25 0 -35 2 -27 8 10 6 13 35 10
115 -3 96 -1 106 15 106 15 0 17 -12 17 -109z m554 -1 c-1 -68 3 -108 10 -112
6 -4 -2 -8 -19 -8 l-30 0 3 116 c3 102 5 115 20 112 15 -3 17 -17 16 -108z
m598 27 c-4 -101 7 -134 45 -139 l28 -3 -28 -6 c-19 -4 -35 -1 -50 11 -19 15
-22 31 -27 119 -5 96 -4 101 15 101 19 0 20 -6 17 -83z m108 -26 c0 -78 4
-111 13 -114 6 -3 2 -6 -10 -6 -12 -1 -25 4 -28 9 -4 6 -7 58 -8 115 -2 94 0
105 16 105 15 0 17 -12 17 -109z m1146 101 c-5 -9 38 -190 48 -199 3 -4 6 2 6
12 0 10 3 16 6 13 3 -3 1 -21 -5 -39 -5 -19 -10 -28 -10 -21 -1 6 -7 12 -14
12 -9 0 -19 22 -27 58 -7 31 -20 83 -30 115 l-18 57 25 0 c13 0 22 -4 19 -8z
m314 -86 c0 -111 4 -126 36 -126 34 0 40 19 34 124 -5 91 -4 96 15 96 19 0 20
-6 19 -108 -1 -68 3 -110 10 -114 6 -5 2 -8 -11 -8 -13 0 -23 5 -23 11 0 6 -8
4 -20 -4 -22 -15 -64 -12 -79 7 -5 6 -11 57 -13 114 -3 92 -1 102 15 102 15 0
17 -11 17 -94z m1104 -16 c-1 -69 2 -108 10 -112 6 -4 -2 -8 -19 -8 l-30 0 3
116 c3 102 5 115 20 112 15 -3 17 -17 16 -108z m806 88 c1 -37 45 -189 53
-182 4 4 7 2 7 -5 0 -12 -27 -27 -36 -19 -3 3 -16 48 -29 99 -14 52 -29 102
-35 112 -9 14 -6 17 15 17 19 0 25 -5 25 -22z m114 7 c-4 -8 -8 -15 -10 -15
-2 0 -4 7 -4 15 0 8 4 15 10 15 5 0 7 -7 4 -15z m446 -94 c0 -78 4 -111 13
-114 6 -3 -6 -5 -28 -5 -22 0 -34 2 -27 5 8 3 12 35 12 108 0 73 -4 105 -12
108 -7 3 -1 6 15 6 l27 1 0 -109z m1968 32 c12 -43 24 -91 28 -106 5 -22 9
-26 16 -15 7 10 8 8 6 -7 -2 -12 -11 -20 -22 -20 -16 0 -24 18 -47 102 -15 56
-30 106 -34 112 -3 7 2 11 13 11 16 0 24 -14 40 -77z m112 73 c0 -11 -19 -15
-25 -6 -3 5 1 10 9 10 9 0 16 -2 16 -4z m90 -105 c0 -78 4 -111 13 -114 6 -3
-6 -6 -28 -6 -25 0 -35 2 -27 8 10 6 13 35 10 115 -3 96 -1 106 15 106 15 0
17 -12 17 -109z m291 17 c1 -51 0 -99 -1 -107 -1 -8 4 -18 12 -22 9 -6 3 -9
-17 -9 l-30 0 3 115 c3 92 6 115 18 115 11 0 14 -19 15 -92z m361 -15 l3 -108
30 0 30 0 3 108 c2 93 5 107 20 107 15 0 17 -12 15 -107 -1 -74 2 -110 10
-115 7 -5 3 -8 -10 -8 -13 0 -23 4 -23 9 0 6 -12 4 -26 -4 -15 -7 -34 -11 -43
-8 -34 12 -41 36 -41 135 0 79 3 98 15 98 11 0 15 -21 17 -107z m510 1 c-3
-80 0 -109 10 -115 9 -6 9 -9 1 -9 -6 0 -19 7 -27 16 -29 28 -18 214 12 214 4
0 6 -48 4 -106z m2914 94 c0 -7 10 -55 23 -106 16 -62 27 -89 32 -80 7 10 9
10 8 -2 -1 -23 -17 -67 -18 -51 -1 8 -7 19 -15 25 -10 9 -66 193 -66 219 0 4
9 7 19 7 10 0 18 -6 17 -12z m124 8 c0 -11 -19 -15 -25 -6 -3 5 1 10 9 10 9 0
16 -2 16 -4z m257 -8 c-3 -26 37 -167 45 -162 9 6 10 -3 2 -33 -13 -46 -30
-21 -53 75 -13 53 -28 105 -33 115 -7 14 -4 17 16 17 13 0 23 -6 23 -12z m132
-25 c6 -20 16 -60 22 -89 7 -29 16 -51 21 -48 9 6 10 -2 2 -33 -13 -49 -32
-22 -54 77 -13 54 -27 97 -32 94 -9 -6 -11 20 -1 29 16 16 33 4 42 -30z m94
17 c-3 -11 -7 -20 -9 -20 -2 0 -4 9 -4 20 0 11 4 20 9 20 5 0 7 -9 4 -20z
m397 -89 c0 -78 4 -111 13 -114 6 -3 -6 -6 -28 -6 -25 0 -35 2 -27 8 10 6 13
35 10 115 -3 96 -1 106 15 106 15 0 17 -12 17 -109z m860 0 c0 -78 4 -111 13
-114 6 -3 -1 -6 -18 -6 l-30 -1 0 115 c0 103 2 115 18 115 15 0 17 -12 17
-109z m598 97 c17 -17 15 -58 -2 -58 -8 0 -15 14 -18 35 -4 37 0 43 20 23z
m-14611 -40 c-3 -8 -6 -5 -6 6 -1 11 2 17 5 13 3 -3 4 -12 1 -19z m7960 0 c-3
-8 -6 -5 -6 6 -1 11 2 17 5 13 3 -3 4 -12 1 -19z m-2520 -10 c-3 -8 -6 -5 -6
6 -1 11 2 17 5 13 3 -3 4 -12 1 -19z m7170 -10 c-3 -8 -6 -5 -6 6 -1 11 2 17
5 13 3 -3 4 -12 1 -19z m130 0 c-3 -8 -6 -5 -6 6 -1 11 2 17 5 13 3 -3 4 -12
1 -19z m-9530 -10 c-3 -8 -6 -5 -6 6 -1 11 2 17 5 13 3 -3 4 -12 1 -19z
m-3350 -10 c-3 -8 -6 -5 -6 6 -1 11 2 17 5 13 3 -3 4 -12 1 -19z m130 0 c-3
-8 -6 -5 -6 6 -1 11 2 17 5 13 3 -3 4 -12 1 -19z m7960 0 c-3 -8 -6 -5 -6 6
-1 11 2 17 5 13 3 -3 4 -12 1 -19z m4290 0 c-3 -8 -6 -5 -6 6 -1 11 2 17 5 13
3 -3 4 -12 1 -19z m-6810 -10 c-3 -8 -6 -5 -6 6 -1 11 2 17 5 13 3 -3 4 -12 1
-19z m7170 -10 c-3 -8 -6 -5 -6 6 -1 11 2 17 5 13 3 -3 4 -12 1 -19z m130 0
c-3 -8 -6 -5 -6 6 -1 11 2 17 5 13 3 -3 4 -12 1 -19z m-9530 -10 c-3 -8 -6 -5
-6 6 -1 11 2 17 5 13 3 -3 4 -12 1 -19z m-3350 -10 c-3 -8 -6 -5 -6 6 -1 11 2
17 5 13 3 -3 4 -12 1 -19z m130 0 c-3 -8 -6 -5 -6 6 -1 11 2 17 5 13 3 -3 4
-12 1 -19z m7960 0 c-3 -8 -6 -5 -6 6 -1 11 2 17 5 13 3 -3 4 -12 1 -19z
m4290 0 c-3 -8 -6 -5 -6 6 -1 11 2 17 5 13 3 -3 4 -12 1 -19z m-6810 -10 c-3
-8 -6 -5 -6 6 -1 11 2 17 5 13 3 -3 4 -12 1 -19z m7170 -10 c-3 -8 -6 -5 -6 6
-1 11 2 17 5 13 3 -3 4 -12 1 -19z m130 0 c-3 -8 -6 -5 -6 6 -1 11 2 17 5 13
3 -3 4 -12 1 -19z m-9530 -10 c-3 -8 -6 -5 -6 6 -1 11 2 17 5 13 3 -3 4 -12 1
-19z m-1417 -11 c0 -23 -25 -66 -33 -57 -2 3 -2 22 1 43 5 41 32 53 32 14z
m6157 1 c-3 -8 -6 -5 -6 6 -1 11 2 17 5 13 3 -3 4 -12 1 -19z m4290 0 c-3 -8
-6 -5 -6 6 -1 11 2 17 5 13 3 -3 4 -12 1 -19z m-12007 -7 c0 -21 -25 -51 -43
-51 -8 0 -7 4 1 12 7 7 12 22 12 35 0 14 6 23 15 23 8 0 15 -9 15 -19z m300
-10 c0 -16 6 -32 13 -34 8 -4 9 -6 0 -6 -18 -1 -43 28 -43 50 0 10 7 19 15 19
10 0 15 -10 15 -29z m550 10 c0 -22 -25 -51 -43 -50 -9 0 -8 2 1 6 6 2 12 18
12 34 0 19 5 29 15 29 8 0 15 -9 15 -19z m306 -16 c12 -40 3 -46 -20 -13 -19
27 -21 48 -3 48 6 0 17 -16 23 -35z m1189 13 c-8 -24 -32 -55 -38 -47 -10 11
15 69 29 69 11 0 14 -6 9 -22z m1585 3 c0 -16 -23 -51 -34 -51 -1 0 0 16 2 35
4 37 32 51 32 16z m690 0 c0 -21 -25 -51 -43 -51 -8 0 -7 4 1 12 7 7 12 22 12
35 0 14 6 23 15 23 8 0 15 -9 15 -19z m577 -3 c-3 -8 -6 -5 -6 6 -1 11 2 17 5
13 3 -3 4 -12 1 -19z m1636 0 c-7 -27 -22 -48 -34 -48 -5 0 -5 10 0 23 4 12 6
28 4 35 -3 7 4 12 15 12 16 0 19 -5 15 -22z m303 -13 c6 -19 9 -35 6 -35 -14
0 -42 35 -42 52 0 31 25 20 36 -17z m304 22 c0 -16 -28 -57 -39 -57 -4 0 -3
16 3 35 10 33 36 49 36 22z m516 -22 c12 -40 3 -46 -20 -13 -19 27 -21 48 -3
48 6 0 17 -16 23 -35z m760 0 c12 -40 3 -46 -20 -13 -19 27 -21 48 -3 48 6 0
17 -16 23 -35z m1120 0 c12 -40 3 -46 -20 -13 -19 27 -21 48 -3 48 6 0 17 -16
23 -35z m3667 10 c-5 -23 -29 -53 -37 -44 -2 2 1 19 6 37 10 38 38 45 31 7z
m97 2 c0 -13 5 -28 12 -35 8 -8 9 -12 1 -12 -18 0 -43 30 -43 51 0 10 7 19 15
19 9 0 15 -9 15 -23z m710 0 c0 -13 5 -28 12 -35 9 -9 8 -12 -5 -12 -17 0 -37
29 -37 54 0 9 7 16 15 16 9 0 15 -9 15 -23z m-8120 -27 c0 -13 -7 -20 -20 -20
-13 0 -20 7 -20 20 0 13 7 20 20 20 13 0 20 -7 20 -20z m8320 0 c0 -13 -7 -20
-20 -20 -13 0 -20 7 -20 20 0 13 7 20 20 20 13 0 20 -7 20 -20z m-11570 -89
c-7 -14 -21 -21 -41 -21 -34 0 -36 24 -3 26 10 1 25 2 32 3 6 1 12 9 13 19 0
9 3 12 5 5 3 -7 0 -21 -6 -32z m9035 0 c-5 -15 -15 -21 -37 -21 -37 0 -33 24
5 28 15 2 27 8 27 14 0 6 3 9 6 5 3 -3 3 -15 -1 -26z m-462 -28 c-13 -2 -35
-2 -50 0 -16 2 -5 4 22 4 28 0 40 -2 28 -4z"/>
<path d="M9473 8229 c-18 -5 -45 -26 -60 -46 l-28 -36 0 -327 c0 -357 0 -357
61 -397 34 -22 109 -22 151 0 66 35 68 47 68 392 0 240 -3 317 -14 342 -24 58
-110 93 -178 72z"/>
<path d="M12296 8230 c-34 -11 -63 -36 -82 -72 -18 -34 -21 -619 -3 -665 36
-97 161 -119 234 -43 l30 31 0 339 0 339 -29 30 c-17 17 -46 36 -65 41 -41 11
-46 11 -85 0z"/>
<path d="M9157 6017 c-76 -282 -140 -522 -144 -534 l-5 -23 278 0 c261 0 314
5 301 26 -3 5 -67 239 -142 519 -76 281 -141 513 -144 517 -4 4 -68 -223 -144
-505z"/>
<path d="M3016 1437 c-14 -10 -16 -28 -14 -107 l3 -95 30 0 30 0 3 97 c2 87 1
98 -16 107 -14 7 -24 7 -36 -2z"/>
<path d="M6546 1437 c-14 -10 -16 -28 -14 -107 l3 -95 30 0 30 0 3 97 c2 87 1
98 -16 107 -14 7 -24 7 -36 -2z"/>
<path d="M14646 1438 c-13 -7 -16 -26 -16 -96 0 -98 7 -115 41 -110 22 3 24 8
29 78 3 41 4 87 2 101 -3 30 -29 42 -56 27z"/>
<path d="M2807 1443 c-4 -3 -7 -28 -7 -55 l0 -48 35 0 c34 0 35 1 35 39 0 22
-3 46 -6 55 -6 16 -45 22 -57 9z"/>
<path d="M5152 1438 c-6 -6 -12 -31 -12 -55 0 -42 1 -43 34 -43 40 0 49 17 38
70 -8 38 -37 51 -60 28z"/>
<path d="M7427 1444 c-4 -4 -7 -29 -7 -56 l0 -48 36 0 35 0 -3 53 c-3 47 -5
52 -28 55 -14 2 -29 0 -33 -4z"/>
<path d="M8244 1347 c-3 -8 -4 -36 -2 -63 3 -47 4 -49 33 -49 l30 0 0 60 c0
58 -1 60 -28 63 -17 2 -29 -2 -33 -11z"/>
<path d="M9642 1438 c-7 -7 -12 -32 -12 -56 l0 -43 38 3 c35 3 37 5 37 38 1
19 -3 43 -7 53 -10 20 -39 22 -56 5z"/>
<path d="M9836 1344 c-10 -27 -7 -89 6 -102 19 -19 48 -14 57 11 9 23 6 81 -4
98 -10 15 -52 10 -59 -7z"/>
<path d="M10240 1431 c-5 -11 -10 -36 -10 -55 0 -35 1 -36 40 -36 l40 0 0 43
c0 24 -5 48 -12 55 -18 18 -46 14 -58 -7z"/>
<path d="M13302 1442 c-9 -6 -12 -35 -10 -108 l3 -99 30 0 30 0 3 95 c2 80 0
97 -15 107 -20 15 -24 15 -41 5z"/>
<path d="M13686 1344 c-10 -27 -7 -89 6 -102 15 -15 45 -16 53 -2 11 18 13 84
4 103 -12 21 -55 22 -63 1z"/>
<path d="M14354 1347 c-3 -8 -4 -36 -2 -63 3 -47 4 -49 33 -49 l30 0 0 60 c0
58 -1 60 -28 63 -17 2 -29 -2 -33 -11z"/>
<path d="M15544 1347 c-3 -8 -4 -36 -2 -63 3 -47 4 -49 33 -49 l30 0 0 60 c0
58 -1 60 -28 63 -17 2 -29 -2 -33 -11z"/>
<path d="M16312 1438 c-6 -6 -12 -31 -12 -55 l0 -43 38 0 38 0 -6 53 c-4 42
-9 53 -25 55 -11 1 -26 -3 -33 -10z"/>
<path d="M16816 1438 c-13 -7 -16 -25 -16 -93 0 -100 5 -115 36 -115 34 0 47
39 40 125 -3 39 -5 73 -6 76 0 12 -37 17 -54 7z"/>
</g>
</svg>
